<?xml version="1.0" encoding="UTF-8"?>
<svg id="Layer_2" data-name="Layer 2" xmlns="http://www.w3.org/2000/svg" viewBox="0 0 27.11 72.93">
  <defs>
    <style>
      .cls-1 {
        fill: #ffffff;
      }
    </style>
  </defs>
  <g id="logotype">
    <g id="man1">
      <path class="cls-1" d="M1.11,15.93L0,8.29,1.73,1.85C2.09,.52,3.46-.27,4.8,.09h0c1.33,.36,2.12,1.73,1.76,3.06l-1.71,6.36,1.26,6.42H22.11c2.76,0,5,2.24,5,5h0v19.5c0,1.38-1.12,2.5-2.5,2.5h0c-1.38,0-2.5-1.12-2.5-2.5V23.93h-1v45.5c0,1.93-1.57,3.5-3.5,3.5h0c-1.93,0-3.5-1.57-3.5-3.5v-26.5s-1,0-1,0v26.5c0,1.93-1.57,3.5-3.5,3.5h0c-1.93,0-3.5-1.57-3.5-3.5v-27.5s0-18.03,0-18.03h0c-2.51-1.24-4.27-3.61-4.73-6.37l-.27-1.6Z"/>
      <circle class="cls-1" cx="13.61" cy="8.43" r="5.5"/>
    </g>
  </g>
</svg>