<?xml version="1.0" encoding="UTF-8"?>
<svg id="Layer_2" data-name="Layer 2" xmlns="http://www.w3.org/2000/svg" viewBox="0 0 341.38 166.54">
  <defs>
    <style>
      .cls-1 {
        fill: #171727;
      }
    </style>
  </defs>
  <g id="logotype">
    <g>
      <path class="cls-1" d="M18.9,22.4l.1,7.2c4.2-5.9,10.5-8.4,16.3-8.4s10.7,2.7,14,6.9c4.1,5.3,4.7,12.1,4.7,19.6v27.3h-14.2s0-26.6,0-26.6c0-3.9-.1-8.3-1.6-11.3-1.3-2.6-3.9-3.7-7-3.7-3.72,0-7.76,1.89-10.44,5.31-.64,.82-.96,1.85-.96,2.89v33.4s-14.2,0-14.2,0V22.4s13.3,0,13.3,0Z"/>
      <path class="cls-1" d="M140.4,69.7c-5.2,4.6-11.4,6.5-18.9,6.5-15.5,0-26.7-11.2-26.7-27.5,0-15.3,11.1-27.5,27.1-27.5,7.2,0,13.3,2.2,18.5,6.5l-7.29,9.88s-.02,.01-.03,0c-2.9-2.69-6.09-4.19-10.18-4.19-8,0-13.6,6.9-13.6,15.3s5.9,15.3,13.4,15.3c3.9,0,8.1-1.1,11.1-4l6.6,9.7Z"/>
      <path class="cls-1" d="M201,48.7c0,15.5-11.5,27.5-27.5,27.5s-27.6-12-27.6-27.5,11.5-27.5,27.6-27.5,27.5,12,27.5,27.5Zm-27.5-15.3c-7.8,0-13.1,6.7-13.1,15.3s5.3,15.3,13.1,15.3,13-6.7,13-15.3-5.2-15.3-13-15.3Z"/>
      <path class="cls-1" d="M225.4,75h-14.2V0h14.2V75Z"/>
      <path class="cls-1" d="M270.1,75l-.1-4.5c-3.4,4.2-8.7,5.7-14.3,5.7-9.8,0-18.9-5.9-18.9-16.7,0-12.9,12-17,22.9-17,2.9,0,6.2,.4,9.5,1.1v-.8c0-6.6-2.7-10.6-10.4-10.6-6,0-11.3,2.2-15.9,4.6l-3.8-10.2c6.7-3.3,14.8-5.4,22.6-5.4,14.6,0,21.7,8.5,21.7,22.2v31.6h-13.3Zm-.9-22.9c-2.7-.6-5-.9-7.2-.9-5.2,0-11.3,1.9-11.3,8.1,0,4.6,3.8,7,8,7s7.5-1.8,10.5-4.5v-9.7Z"/>
      <path class="cls-1" d="M325.32,36.68s-.03,.01-.04,0c-2.7-2.39-6.39-4.38-10.38-4.38-2.7,0-5.1,1.5-5.1,4,0,3.3,3.9,5,8.3,6.8,6.8,2.8,15.4,6.2,15.4,16.2,0,11.6-10,16.9-20.2,16.9-8.2,0-15.4-3.2-21.2-9l8.1-8.4c4,3.9,7.3,6.2,12.4,6.2,2.9,0,6.7-1.4,6.7-4.6,0-3.7-4.8-5.3-10-7.6-6.3-2.7-13.2-6.3-13.2-15.5,0-10.7,9.2-16.1,18.8-16.1,6.99,0,13.28,2.29,18.18,6.88,.01,.01,.01,.03,0,.05l-7.76,8.55Z"/>
      <path class="cls-1" d="M40.9,165l-.2-6.5c-3.7,5.8-10.8,7.7-16.2,7.7-13.9,0-24.5-12.4-24.5-27.7s10.4-27.3,24.7-27.3c5,0,11.3,1.8,15.3,6.3v-27.11c0-.22,.18-.39,.39-.39h13.41c.22,0,.39,.18,.39,.39v74.61s-13.3,0-13.3,0Zm-.9-33.59c0-1.61-.67-3.17-1.88-4.23-3.15-2.75-6.66-3.79-10.32-3.79-9.1,0-13.3,8.1-13.3,15.5s5,15.1,13.1,15.1c3.89,0,8.01-1.27,11.06-4.98,.87-1.06,1.35-2.38,1.35-3.75v-13.86Z"/>
      <path class="cls-1" d="M156.6,126.7c-2.7-2.4-6.4-4.4-10.4-4.4-2.7,0-5.1,1.5-5.1,4,0,3.3,3.9,5,8.3,6.8,6.8,2.8,15.4,6.2,15.4,16.2,0,11.6-10,16.9-20.2,16.9-8.2,0-15.4-3.2-21.2-9l8.1-8.4c4,3.9,7.3,6.2,12.4,6.2,2.9,0,6.7-1.4,6.7-4.6,0-3.7-4.8-5.3-10-7.6-6.3-2.7-13.2-6.3-13.2-15.5,0-10.7,9.2-16.1,18.8-16.1,7,0,13.3,2.3,18.2,6.9l-7.8,8.6Z"/>
      <path class="cls-1" d="M190.9,124.2v20.4c0,1.6,0,3,.2,4.5,.4,3.1,1.6,5,4.6,5,2.2,0,3.9-.6,5.7-1.5l4.4,10.5c-3.4,2-8.4,3.1-12.5,3.1-8.2,0-13.7-4.5-15.6-11.3-.8-2.6-1-5.7-1-8.8v-21.9h-6.3v-11.8h6.3s.18-10.46,.18-10.46c.01-.63,.53-1.14,1.16-1.14h11.7c.64,0,1.16,.52,1.16,1.16v10.44s13.4,0,13.4,0v11.8h-13.4Z"/>
      <path class="cls-1" d="M244.8,165l-.1-4.5c-3.4,4.2-8.7,5.7-14.3,5.7-9.8,0-18.9-5.9-18.9-16.7,0-12.9,12-17,22.9-17,2.9,0,6.2,.4,9.5,1.1v-.8c0-6.6-2.7-10.6-10.4-10.6-6,0-11.3,2.2-15.9,4.6l-3.8-10.2c6.7-3.3,14.8-5.4,22.6-5.4,14.6,0,21.7,8.5,21.7,22.2v31.6h-13.3Zm-.9-22.9c-2.7-.6-5-.9-7.2-.9-5.2,0-11.3,1.9-11.3,8.1,0,4.6,3.8,7,8,7s7.5-1.8,10.5-4.5v-9.7Z"/>
      <path class="cls-1" d="M300.02,126.68s-.03,.01-.04,0c-2.7-2.39-6.39-4.38-10.38-4.38-2.7,0-5.1,1.5-5.1,4,0,3.3,3.9,5,8.3,6.8,6.8,2.8,15.4,6.2,15.4,16.2,0,11.6-10,16.9-20.2,16.9-8.2,0-15.4-3.2-21.2-9l8.1-8.4c4,3.9,7.3,6.2,12.4,6.2,2.9,0,6.7-1.4,6.7-4.6,0-3.7-4.8-5.3-10-7.6-6.3-2.7-13.2-6.3-13.2-15.5,0-10.7,9.2-16.1,18.8-16.1,6.99,0,13.28,2.29,18.18,6.88,.01,.01,.01,.03,0,.05l-7.76,8.55Z"/>
    </g>
    <g id="man1">
      <path class="cls-1" d="M62.38,17.54l-1.11-7.63,1.73-6.44c.36-1.33,1.73-2.12,3.06-1.76h0c1.33,.36,2.12,1.73,1.76,3.06l-1.71,6.36,1.26,6.42h16c2.76,0,5,2.24,5,5h0v19.5c0,1.38-1.12,2.5-2.5,2.5h0c-1.38,0-2.5-1.12-2.5-2.5V25.54h-1v45.5c0,1.93-1.57,3.5-3.5,3.5h0c-1.93,0-3.5-1.57-3.5-3.5v-26.5s-1,0-1,0v26.5c0,1.93-1.57,3.5-3.5,3.5h0c-1.93,0-3.5-1.57-3.5-3.5v-27.5s0-18.03,0-18.03h0c-2.51-1.24-4.27-3.61-4.73-6.37l-.27-1.6Z"/>
      <circle class="cls-1" cx="74.88" cy="10.04" r="5.5"/>
    </g>
    <g id="man2">
      <path class="cls-1" d="M65.87,146.17l10.51,.37,7-9,9-13-5.89-1.14-8.1,6.59c-1.09,.86-2.68,.65-3.52-.46l-.04-.05c-.82-1.1-.64-2.63,.4-3.5,2.52-2.09,7.47-6.31,9.83-8.32,.83-.71,1.93-.98,2.99-.74l7.32,1.63h0c3.18,.64,5.95,2.59,7.62,5.37l.38,.63,4,8,9.38,.27c1.49,.04,2.67,1.26,2.67,2.75h0c0,1.52-1.23,2.75-2.75,2.75h-11.44c-1.21,0-2.32-.64-2.93-1.68l-2.99-5.1-6.94,9,8.9,7.28c1.23,1.01,1.6,2.73,.89,4.15l-6.26,11.52c-.84,1.69-2.9,2.37-4.58,1.53h0c-1.64-.82-2.34-2.8-1.58-4.47l4.64-9-8-7-5.91,7.6c-.68,.88-1.75,1.37-2.86,1.32l-12.02-.56c-1.8-.08-3.21-1.56-3.21-3.36h0c0-1.91,1.58-3.43,3.49-3.37Z"/>
      <circle class="cls-1" cx="105.88" cy="117.04" r="5.5"/>
    </g>
    <g id="man3">
      <path class="cls-1" d="M336.38,109.54h0c2.76,0,5,2.24,5,5h0v19.5c0,1.38-1.12,2.5-2.5,2.5h0c-1.38,0-2.5-1.12-2.5-2.5v-16.5h-1v45.5c0,1.93-1.57,3.5-3.5,3.5h0c-1.93,0-3.5-1.57-3.5-3.5v-26.5s-1,0-1,0v26.5c0,1.93-1.57,3.5-3.5,3.5h0c-1.93,0-3.5-1.57-3.5-3.5v-27.5s0-18,0-18h-1s0,16.5,0,16.5c0,1.38-1.12,2.5-2.5,2.5h0c-1.38,0-2.5-1.12-2.5-2.5v-19.5s0,0,0,0c0-2.76,2.24-5,5-5h0"/>
      <path class="cls-1" d="M327.88,96.54c3.04,0,5.5,2.46,5.5,5.5s-2.46,5.5-5.5,5.5c-3.04,0-5.5-2.46-5.5-5.5s2.46-5.5,5.5-5.5Z"/>
    </g>
  </g>
</svg>