<?xml version="1.0" encoding="UTF-8"?>
<svg id="Layer_2" data-name="Layer 2" xmlns="http://www.w3.org/2000/svg" viewBox="0 0 57.06 53.83">
  <defs>
    <style>
      .cls-1 {
        fill: #ffffff;
      }
    </style>
  </defs>
  <g id="logotype">
    <g id="man2">
      <path class="cls-1" d="M3.49,34.63l10.51,.37,7-9,9-13-5.89-1.14-8.1,6.59c-1.09,.86-2.68,.65-3.52-.46l-.04-.05c-.82-1.1-.64-2.63,.4-3.5,2.52-2.09,7.47-6.31,9.83-8.32,.83-.71,1.93-.98,2.99-.74l7.32,1.63h0c3.18,.64,5.95,2.59,7.62,5.37l.38,.63,4,8,9.38,.27c1.49,.04,2.67,1.26,2.67,2.75h0c0,1.52-1.23,2.75-2.75,2.75h-11.44c-1.21,0-2.32-.64-2.93-1.68l-2.99-5.1-6.94,9,8.9,7.28c1.23,1.01,1.6,2.73,.89,4.15l-6.26,11.52c-.84,1.69-2.9,2.37-4.58,1.53h0c-1.64-.82-2.34-2.8-1.58-4.47l4.64-9-8-7-5.91,7.6c-.68,.88-1.75,1.37-2.86,1.32l-12.02-.56c-1.8-.08-3.21-1.56-3.21-3.36H0c0-1.91,1.58-3.43,3.49-3.37Z"/>
      <circle class="cls-1" cx="43.5" cy="5.5" r="5.5"/>
    </g>
  </g>
</svg>