<?xml version="1.0" encoding="UTF-8"?>
<svg id="Layer_2" data-name="Layer 2" xmlns="http://www.w3.org/2000/svg" viewBox="0 0 27 70">
  <defs>
    <style>
      .cls-1 {
        fill: #ffffff;
      }
    </style>
  </defs>
  <g id="logotype">
    <g id="man3">
      <path class="cls-1" d="M22,13h0c2.76,0,5,2.24,5,5h0v19.5c0,1.38-1.12,2.5-2.5,2.5h0c-1.38,0-2.5-1.12-2.5-2.5V21h-1v45.5c0,1.93-1.57,3.5-3.5,3.5h0c-1.93,0-3.5-1.57-3.5-3.5v-26.5s-1,0-1,0v26.5c0,1.93-1.57,3.5-3.5,3.5h0c-1.93,0-3.5-1.57-3.5-3.5v-27.5s0-18,0-18h-1s0,16.5,0,16.5c0,1.38-1.12,2.5-2.5,2.5h0c-1.38,0-2.5-1.12-2.5-2.5V18s0,0,0,0c0-2.76,2.24-5,5-5h0"/>
      <path class="cls-1" d="M13.5,0c3.04,0,5.5,2.46,5.5,5.5s-2.46,5.5-5.5,5.5c-3.04,0-5.5-2.46-5.5-5.5S10.46,0,13.5,0Z"/>
    </g>
  </g>
</svg>